<svg xmlns="http://www.w3.org/2000/svg" width="110" height="119" viewBox="0 0 110 119" fill="none">
  <g filter="url(#filter0_d_225_4629)">
    <ellipse cx="56.475" cy="51.5" rx="28.5" ry="31.5" transform="rotate(48.6904 56.475 51.5)" fill="url(#paint0_linear_225_4629)"/>
  </g>
  <ellipse cx="54.475" cy="48.5" rx="28.5" ry="31.5" transform="rotate(48.6904 54.475 48.5)" fill="url(#paint1_linear_225_4629)"/>
  <ellipse cx="54.475" cy="48.5" rx="28.5" ry="31.5" transform="rotate(48.6904 54.475 48.5)" fill="url(#paint2_linear_225_4629)"/>
  <ellipse cx="54.475" cy="48.5" rx="28.5" ry="31.5" transform="rotate(48.6904 54.475 48.5)" fill="url(#paint3_linear_225_4629)"/>
  <ellipse cx="54.475" cy="48.5" rx="25.6757" ry="28.3784" transform="rotate(48.6904 54.475 48.5)" fill="url(#paint4_linear_225_4629)"/>
  <g filter="url(#filter1_d_225_4629)">
    <path d="M48.5184 50.3243C50.1773 48.663 52.862 48.6544 54.5151 50.3051C56.1682 51.9558 56.1634 54.6405 54.5046 56.3018L42.8663 67.9569C44.3298 67.4864 45.9947 67.8284 47.153 68.985C48.8061 70.6357 48.8013 73.3205 47.1425 74.9817L46.5175 75.6076C47.981 75.1371 49.6459 75.4791 50.8042 76.6357C52.3868 78.2161 52.4497 80.744 50.9967 82.4145C52.2309 82.2756 53.5121 82.6771 54.4565 83.6202C56.1096 85.2709 56.1048 87.9556 54.446 89.6169C48.6859 96.2735 45.4483 99.8098 38.7604 105.325C34.6548 108.711 30.8557 110.09 27.7535 113.357L8.79738 94.4282C12.035 91.4656 12.2802 88.4134 12.1968 86.0228C11.8102 85.1095 11.7421 84.0561 12.08 83.0376L16.1387 70.8087C16.2028 70.6158 16.2793 70.4304 16.3671 70.2532C16.4477 70.0903 16.5379 69.9343 16.6369 69.7859C16.9943 68.464 17.9828 67.3361 19.376 66.8593L26.9919 64.2524C29.115 63.5256 31.4092 64.5746 32.2591 66.6071L48.5184 50.3243Z" fill="url(#paint5_linear_225_4629)"/>
    <path fill-rule="evenodd" clip-rule="evenodd" d="M48.8957 46.8321C47.7678 46.9261 46.7773 46.088 46.6833 44.9601L46.0002 36.7631C45.9063 35.6352 46.7444 34.6447 47.8722 34.5508C49.0001 34.4568 49.9906 35.2949 50.0846 36.4227L50.7677 44.6198C50.8617 45.7476 50.0236 46.7381 48.8957 46.8321Z" fill="#2697D1"/>
    <path fill-rule="evenodd" clip-rule="evenodd" d="M57.692 47.7564C56.8082 47.0493 56.6649 45.7598 57.372 44.876L62.8366 38.0451C63.5437 37.1614 64.8332 37.0181 65.717 37.7251C66.6008 38.4321 66.7441 39.7217 66.037 40.6055L60.5724 47.4363C59.8653 48.3201 58.5758 48.4634 57.692 47.7564Z" fill="#2697D1"/>
    <path fill-rule="evenodd" clip-rule="evenodd" d="M58.2891 55.7194C58.2891 54.5876 59.2065 53.6702 60.3383 53.6702H67.1692C68.301 53.6702 69.2184 54.5876 69.2184 55.7194C69.2184 56.8512 68.301 57.7687 67.1692 57.7687H60.3383C59.2065 57.7687 58.2891 56.8512 58.2891 55.7194Z" fill="#2697D1"/>
  </g>
  <defs>
    <filter id="filter0_d_225_4629" x="3.24463" y="0.655518" width="106.461" height="105.689" filterUnits="userSpaceOnUse" color-interpolation-filters="sRGB">
      <feFlood flood-opacity="0" result="BackgroundImageFix"/>
      <feColorMatrix in="SourceAlpha" type="matrix" values="0 0 0 0 0 0 0 0 0 0 0 0 0 0 0 0 0 0 127 0" result="hardAlpha"/>
      <feOffset dy="2"/>
      <feGaussianBlur stdDeviation="11.5"/>
      <feComposite in2="hardAlpha" operator="out"/>
      <feColorMatrix type="matrix" values="0 0 0 0 0.164706 0 0 0 0 0.670588 0 0 0 0 0.933333 0 0 0 0.5 0"/>
      <feBlend mode="normal" in2="BackgroundImageFix" result="effect1_dropShadow_225_4629"/>
      <feBlend mode="normal" in="SourceGraphic" in2="effect1_dropShadow_225_4629" result="shape"/>
    </filter>
    <filter id="filter1_d_225_4629" x="4.79736" y="31.5436" width="68.4209" height="86.8135" filterUnits="userSpaceOnUse" color-interpolation-filters="sRGB">
      <feFlood flood-opacity="0" result="BackgroundImageFix"/>
      <feColorMatrix in="SourceAlpha" type="matrix" values="0 0 0 0 0 0 0 0 0 0 0 0 0 0 0 0 0 0 127 0" result="hardAlpha"/>
      <feOffset dy="1"/>
      <feGaussianBlur stdDeviation="2"/>
      <feComposite in2="hardAlpha" operator="out"/>
      <feColorMatrix type="matrix" values="0 0 0 0 0 0 0 0 0 0 0 0 0 0 0 0 0 0 0.25 0"/>
      <feBlend mode="normal" in2="BackgroundImageFix" result="effect1_dropShadow_225_4629"/>
      <feBlend mode="normal" in="SourceGraphic" in2="effect1_dropShadow_225_4629" result="shape"/>
    </filter>
    <linearGradient id="paint0_linear_225_4629" x1="61.0508" y1="23.5703" x2="84.975" y2="51.5" gradientUnits="userSpaceOnUse">
      <stop stop-color="#D99748"/>
      <stop offset="1" stop-color="#735026"/>
    </linearGradient>
    <linearGradient id="paint1_linear_225_4629" x1="35.8898" y1="29.5043" x2="77.7383" y2="57.6281" gradientUnits="userSpaceOnUse">
      <stop stop-color="#D99748"/>
      <stop offset="1" stop-color="#ECB574"/>
    </linearGradient>
    <linearGradient id="paint2_linear_225_4629" x1="35.8898" y1="29.5043" x2="77.7383" y2="57.6281" gradientUnits="userSpaceOnUse">
      <stop stop-color="#D99748"/>
      <stop offset="1" stop-color="#ECB574"/>
    </linearGradient>
    <linearGradient id="paint3_linear_225_4629" x1="35.8898" y1="29.5043" x2="77.7383" y2="57.6281" gradientUnits="userSpaceOnUse">
      <stop stop-color="#D99748"/>
      <stop offset="1" stop-color="#ECB574"/>
    </linearGradient>
    <linearGradient id="paint4_linear_225_4629" x1="50.6401" y1="16.507" x2="37.4483" y2="70.1468" gradientUnits="userSpaceOnUse">
      <stop stop-color="#D99748"/>
      <stop offset="1" stop-color="#ECB574"/>
    </linearGradient>
    <linearGradient id="paint5_linear_225_4629" x1="59.7071" y1="55.4896" x2="14.8196" y2="100.442" gradientUnits="userSpaceOnUse">
      <stop offset="0.38" stop-color="#28A2E1"/>
      <stop offset="0.765" stop-color="#268DC2"/>
      <stop offset="1" stop-color="#1E3D4B"/>
    </linearGradient>
  </defs>
</svg>