<svg xmlns="http://www.w3.org/2000/svg" width="35" height="31" viewBox="0 0 35 31" fill="none">
  <rect width="27.0624" height="20.8166" rx="6.97674" transform="matrix(0.980375 -0.19714 0.192888 0.981221 3.95337 10.5742)" fill="url(#paint0_linear_353_805)" fill-opacity="0.5"/>
  <rect width="27.0624" height="20.8166" rx="6.97674" transform="matrix(0.980375 -0.19714 0.192888 0.981221 0.5 5.33508)" fill="url(#paint1_linear_353_805)"/>
  <g filter="url(#filter0_d_353_805)">
    <rect x="3.8689" y="5.21777" width="27.0507" height="20.8255" rx="6.97674" fill="url(#paint2_linear_353_805)"/>
  </g>
  <g filter="url(#filter1_di_353_805)">
    <path d="M13.9488 21.0108C13.9811 21.0507 14.0156 21.0893 14.0524 21.1265C14.6545 21.7353 15.6304 21.7353 16.2325 21.1265L25.3885 11.8661C25.9905 11.2572 25.9905 10.2701 25.3885 9.66121C24.7865 9.05238 23.8105 9.05238 23.2084 9.66121L15.1424 17.8192L11.2184 13.8505C10.6165 13.2416 9.64043 13.2416 9.03846 13.8505C8.4364 14.4593 8.4364 15.4465 9.03846 16.0553L13.8345 20.906C13.8712 20.9432 13.9094 20.9782 13.9488 21.0108Z" fill="#7F455A"/>
  </g>
  <defs>
    <filter id="filter0_d_353_805" x="2.70611" y="4.05498" width="29.3761" height="23.1511" filterUnits="userSpaceOnUse" color-interpolation-filters="sRGB">
      <feFlood flood-opacity="0" result="BackgroundImageFix"/>
      <feColorMatrix in="SourceAlpha" type="matrix" values="0 0 0 0 0 0 0 0 0 0 0 0 0 0 0 0 0 0 127 0" result="hardAlpha"/>
      <feOffset/>
      <feGaussianBlur stdDeviation="0.581395"/>
      <feComposite in2="hardAlpha" operator="out"/>
      <feColorMatrix type="matrix" values="0 0 0 0 0 0 0 0 0 0 0 0 0 0 0 0 0 0 0.49 0"/>
      <feBlend mode="normal" in2="BackgroundImageFix" result="effect1_dropShadow_353_805"/>
      <feBlend mode="normal" in="SourceGraphic" in2="effect1_dropShadow_353_805" result="shape"/>
    </filter>
    <filter id="filter1_di_353_805" x="6.84273" y="9.20459" width="19.5788" height="15.2855" filterUnits="userSpaceOnUse" color-interpolation-filters="sRGB">
      <feFlood flood-opacity="0" result="BackgroundImageFix"/>
      <feColorMatrix in="SourceAlpha" type="matrix" values="0 0 0 0 0 0 0 0 0 0 0 0 0 0 0 0 0 0 127 0" result="hardAlpha"/>
      <feOffset dx="-0.581395" dy="1.74419"/>
      <feGaussianBlur stdDeviation="0.581395"/>
      <feComposite in2="hardAlpha" operator="out"/>
      <feColorMatrix type="matrix" values="0 0 0 0 1 0 0 0 0 1 0 0 0 0 1 0 0 0 0.32 0"/>
      <feBlend mode="normal" in2="BackgroundImageFix" result="effect1_dropShadow_353_805"/>
      <feBlend mode="normal" in="SourceGraphic" in2="effect1_dropShadow_353_805" result="shape"/>
      <feColorMatrix in="SourceAlpha" type="matrix" values="0 0 0 0 0 0 0 0 0 0 0 0 0 0 0 0 0 0 127 0" result="hardAlpha"/>
      <feOffset/>
      <feGaussianBlur stdDeviation="1.16279"/>
      <feComposite in2="hardAlpha" operator="arithmetic" k2="-1" k3="1"/>
      <feColorMatrix type="matrix" values="0 0 0 0 0 0 0 0 0 0 0 0 0 0 0 0 0 0 0.31 0"/>
      <feBlend mode="normal" in2="shape" result="effect2_innerShadow_353_805"/>
    </filter>
    <linearGradient id="paint0_linear_353_805" x1="13.8296" y1="21.8154" x2="9.90031" y2="8.6046" gradientUnits="userSpaceOnUse">
      <stop stop-color="#00BAFF"/>
      <stop offset="1" stop-color="#006F99"/>
    </linearGradient>
    <linearGradient id="paint1_linear_353_805" x1="1.50392" y1="3.54288" x2="23.3688" y2="4.38064" gradientUnits="userSpaceOnUse">
      <stop stop-color="#ED1C24"/>
      <stop offset="1" stop-color="#FF005C"/>
    </linearGradient>
    <linearGradient id="paint2_linear_353_805" x1="17.3942" y1="5.21777" x2="28.8942" y2="25.319" gradientUnits="userSpaceOnUse">
      <stop stop-color="#F7E8DA"/>
      <stop offset="1" stop-color="#DFC9A7"/>
    </linearGradient>
  </defs>
</svg>