<svg xmlns="http://www.w3.org/2000/svg" width="121" height="120" viewBox="0 0 121 120" fill="none">
  <g clip-path="url(#clip0_11_541)">
    <path d="M60.5 120C93.6371 120 120.5 93.1371 120.5 60C120.5 26.8629 93.6371 0 60.5 0C27.3629 0 0.5 26.8629 0.5 60C0.5 93.1371 27.3629 120 60.5 120Z" fill="url(#paint0_linear_11_541)"/>
    <path fill-rule="evenodd" clip-rule="evenodd" d="M27.6596 59.3666C45.1508 51.746 56.8144 46.722 62.6502 44.2946C79.3129 37.3641 82.7752 36.1602 85.0319 36.1204C85.5283 36.1117 86.6381 36.2347 87.357 36.818C87.964 37.3105 88.131 37.9759 88.2109 38.4429C88.2908 38.9099 88.3903 39.9737 88.3112 40.8049C87.4083 50.2923 83.5012 73.3157 81.5135 83.9418C80.6724 88.438 79.0163 89.9456 77.4131 90.0932C73.9287 90.4138 71.2829 87.7905 67.9082 85.5783C62.6274 82.1167 59.6441 79.9618 54.5182 76.5839C48.5943 72.6802 52.4345 70.5346 55.8105 67.0282C56.694 66.1105 72.046 52.1468 72.3431 50.88C72.3803 50.7216 72.4148 50.1311 72.0639 49.8192C71.7131 49.5074 71.1953 49.614 70.8217 49.6988C70.292 49.819 61.8559 55.395 45.5133 66.4267C43.1188 68.071 40.9498 68.8721 39.0066 68.8302C36.8643 68.7839 32.7433 67.6189 29.6798 66.623C25.9223 65.4016 22.9359 64.7559 23.196 62.6815C23.3314 61.6011 24.8193 60.4961 27.6596 59.3666Z" fill="white"/>
  </g>
  <defs>
    <linearGradient id="paint0_linear_11_541" x1="60.5" y1="0" x2="60.5" y2="119.11" gradientUnits="userSpaceOnUse">
      <stop stop-color="#2AABEE"/>
      <stop offset="1" stop-color="#229ED9"/>
    </linearGradient>
    <clipPath id="clip0_11_541">
      <rect width="120" height="120" fill="white" transform="translate(0.5)"/>
    </clipPath>
  </defs>
</svg>